<svg width="20" height="23" viewBox="0 0 20 23" fill="none" xmlns="http://www.w3.org/2000/svg">
<path d="M17.7812 17.8438C18.0625 18.1562 18.0625 18.625 17.75 18.9062L16.875 19.7812C16.5938 20.0938 16.125 20.0938 15.8125 19.7812L12.7188 16.6875C12.5625 16.5312 12.5 16.3438 12.5 16.1562V15.625C11.375 16.5 10 17 8.5 17C4.90625 17 2 14.0938 2 10.5C2 6.9375 4.90625 4 8.5 4C12.0625 4 15 6.9375 15 10.5C15 12.0312 14.4688 13.4062 13.625 14.5H14.125C14.3125 14.5 14.5 14.5938 14.6562 14.7188L17.7812 17.8438ZM8.5 14.5C10.6875 14.5 12.5 12.7188 12.5 10.5C12.5 8.3125 10.6875 6.5 8.5 6.5C6.28125 6.5 4.5 8.3125 4.5 10.5C4.5 12.7188 6.28125 14.5 8.5 14.5Z" fill="#1351B4"/>
</svg>
