<svg width="20" height="23" viewBox="0 0 20 23" fill="none" xmlns="http://www.w3.org/2000/svg">
<path d="M3.5 8.125C3.21875 8.125 3 7.90625 3 7.625V6.375C3 6.125 3.21875 5.875 3.5 5.875H16.5C16.75 5.875 17 6.125 17 6.375V7.625C17 7.90625 16.75 8.125 16.5 8.125H3.5ZM3.5 13.125C3.21875 13.125 3 12.9062 3 12.625V11.375C3 11.125 3.21875 10.875 3.5 10.875H16.5C16.75 10.875 17 11.125 17 11.375V12.625C17 12.9062 16.75 13.125 16.5 13.125H3.5ZM3.5 18.125C3.21875 18.125 3 17.9062 3 17.625V16.375C3 16.125 3.21875 15.875 3.5 15.875H16.5C16.75 15.875 17 16.125 17 16.375V17.625C17 17.9062 16.75 18.125 16.5 18.125H3.5Z" fill="#1351B4"/>
</svg>
