<svg width="11" height="13" viewBox="0 0 11 13" fill="none" xmlns="http://www.w3.org/2000/svg">
<path d="M5.25 6C3.58594 6 2.25 4.66406 2.25 3C2.25 1.35938 3.58594 0 5.25 0C6.89062 0 8.25 1.35938 8.25 3C8.25 4.66406 6.89062 6 5.25 6ZM7.33594 6.75C9.07031 6.75 10.5 8.17969 10.5 9.91406V10.875C10.5 11.5078 9.98438 12 9.375 12H1.125C0.492188 12 0 11.5078 0 10.875V9.91406C0 8.17969 1.40625 6.75 3.14062 6.75H3.53906C4.05469 7.00781 4.64062 7.125 5.25 7.125C5.85938 7.125 6.42188 7.00781 6.9375 6.75H7.33594Z" fill="#1351B4"/>
</svg>
