<svg width="15" height="13" viewBox="0 0 15 13" fill="none" xmlns="http://www.w3.org/2000/svg">
<path d="M7.5 6C5.83594 6 4.5 4.66406 4.5 3C4.5 1.35938 5.83594 0 7.5 0C9.14062 0 10.5 1.35938 10.5 3C10.5 4.66406 9.14062 6 7.5 6ZM9.58594 6.75C11.3203 6.75 12.75 8.17969 12.75 9.91406V10.875C12.75 11.5078 12.2344 12 11.625 12H3.375C2.74219 12 2.25 11.5078 2.25 10.875V9.91406C2.25 8.17969 3.65625 6.75 5.39062 6.75H5.78906C6.30469 7.00781 6.89062 7.125 7.5 7.125C8.10938 7.125 8.67188 7.00781 9.1875 6.75H9.58594Z" fill="white"/>
</svg>
